# Made in Blockbench 4.10.4
mtllib item.mtl

o cube
v 0.25 0.375 0.75
v 0.75 0.375 0.75
v 0.75 0.875 0.75
v 0.25 0.875 0.75
v 0.25 0.375 0.25
v 0.25 0.875 0.25
v 0.75 0.375 0.25
v 0.75 0.875 0.25
vt 0.5 0.5
vt 1 0.5
vt 1 1
vt 0.5 1
vt 0 0.5
vt 0.5 0.5
vt 0.5 1
vt 0 1
vt 0 0.5
vt 0.5 0.5
vt 0.5 1
vt 0 1
vt 0 0.5
vt 0.5 0.5
vt 0.5 1
vt 0 1
vt 0 0
vt 0.5 0
vt 0.5 0.5
vt 0 0.5
vt 0.5 0
vt 1 0
vt 1 0.5
vt 0.5 0.5
vn 0 0 1
vn -1 0 0
vn 0 0 -1
vn 1 0 0
vn 0 1 0
vn 0 -1 0
usemtl m_1
f 1/1/1 2/2/1 3/3/1 4/4/1
f 5/5/2 1/6/2 4/7/2 6/8/2
f 7/9/3 5/10/3 6/11/3 8/12/3
f 2/13/4 7/14/4 8/15/4 3/16/4
f 8/17/5 6/18/5 4/19/5 3/20/5
f 2/21/6 1/22/6 5/23/6 7/24/6
o cube4
v 0.125 0 0.875
v 0.125 0.25 0.875
v 0.125 0.25 0.125
v 0.125 0 0.125
v 0.875 0.25 0.125
v 0.875 0 0.125
v 0.875 0.25 0.875
v 0.875 0 0.875
v 0.9375 0.3125 0.9375
v 0.9375 0.875 0.9375
v 0.0625 0.875 0.9375
v 0.0625 0.3125 0.9375
v 0.0625 0.25 0.875
v 0.9375 0.25 0.875
v 0.9375 0.9375 1
v 0.0625 0.9375 1
v 0.9375 0.3125 0.0625
v 0.9375 0.875 0.0625
v 0.9375 0.875 0.9375
v 0.9375 0.3125 0.9375
v 0.875 0.25 0.9375
v 0.875 0.25 0.0625
v 1 0.9375 0.0625
v 1 0.9375 0.9375
v 0.0625 0.3125 0.0625
v 0.0625 0.875 0.0625
v 0.9375 0.875 0.0625
v 0.9375 0.3125 0.0625
v 0.9375 0.25 0.125
v 0.0625 0.25 0.125
v 0.0625 0.9375 0
v 0.9375 0.9375 0
v 0.0625 0.3125 0.9375
v 0.0625 0.875 0.9375
v 0.0625 0.875 0.0625
v 0.0625 0.3125 0.0625
v 0.125 0.25 0.0625
v 0.125 0.25 0.9375
v 0 0.9375 0.9375
v 0 0.9375 0.0625
v 0.875 0 0.875
v 1 0 1
v 1 0.3125 1
v 0.875 0.3125 0.875
v 0.875 0 0.125
v 1 0 0
v 1 0.3125 0
v 0.875 0.3125 0.125
v 0.125 0 0.125
v 0 0 0
v 0 0.3125 0
v 0.125 0.3125 0.125
v 0.125 0 0.875
v 0 0 1
v 0 0.3125 1
v 0.125 0.3125 0.875
v 0.9375 0.3125 0.9375
v 0.0625 0.3125 0.9375
v 0.0625 0.875 0.9375
v 0.9375 0.875 0.9375
v 0.9375 0.25 0.875
v 0.0625 0.25 0.875
v 0.0625 0.9375 1
v 0.9375 0.9375 1
v 0.9375 0.3125 0.0625
v 0.9375 0.3125 0.9375
v 0.9375 0.875 0.9375
v 0.9375 0.875 0.0625
v 0.875 0.25 0.0625
v 0.875 0.25 0.9375
v 1 0.9375 0.9375
v 1 0.9375 0.0625
v 0.0625 0.3125 0.0625
v 0.9375 0.3125 0.0625
v 0.9375 0.875 0.0625
v 0.0625 0.875 0.0625
v 0.0625 0.25 0.125
v 0.9375 0.25 0.125
v 0.9375 0.9375 0
v 0.0625 0.9375 0
v 0.0625 0.3125 0.9375
v 0.0625 0.3125 0.0625
v 0.0625 0.875 0.0625
v 0.0625 0.875 0.9375
v 0.125 0.25 0.9375
v 0.125 0.25 0.0625
v 0 0.9375 0.0625
v 0 0.9375 0.9375
v 0.875 0 0.875
v 0.875 0.3125 0.875
v 1 0.3125 1
v 1 0 1
v 0.875 0 0.125
v 0.875 0.3125 0.125
v 1 0.3125 0
v 1 0 0
v 0.125 0 0.125
v 0.125 0.3125 0.125
v 0 0.3125 0
v 0 0 0
v 0.125 0 0.875
v 0.125 0.3125 0.875
v 0 0.3125 1
v 0 0 1
vt 0.9375 0.375
vt 0.9375 0.5
vt 0.5625 0.5
vt 0.5625 0.375
vt 0.9375 0.375
vt 0.9375 0.5
vt 0.5625 0.5
vt 0.5625 0.375
vt 0.9375 0.375
vt 0.9375 0.5
vt 0.5625 0.5
vt 0.5625 0.375
vt 0.9375 0.375
vt 0.9375 0.5
vt 0.5625 0.5
vt 0.5625 0.375
vt 0.5625 0
vt 0.9375 0
vt 0.9375 0.375
vt 0.5625 0.375
vt 0.5625 0.5625
vt 0.9375 0.5625
vt 0.9375 0.9375
vt 0.5625 0.9375
vt 0.46875 0.53125
vt 0.46875 0.8125
vt 0.03125 0.8125
vt 0.03125 0.53125
vt 0.03125 0.5
vt 0.46875 0.5
vt 0.46875 0.53125
vt 0.03125 0.53125
vt 0.03125 0.8125
vt 0.46875 0.8125
vt 0.46875 0.84375
vt 0.03125 0.84375
vt 0.46875 0.53125
vt 0.46875 0.8125
vt 0.03125 0.8125
vt 0.03125 0.53125
vt 0.03125 0.5
vt 0.46875 0.5
vt 0.46875 0.53125
vt 0.03125 0.53125
vt 0.03125 0.8125
vt 0.46875 0.8125
vt 0.46875 0.84375
vt 0.03125 0.84375
vt 0.46875 0.53125
vt 0.46875 0.8125
vt 0.03125 0.8125
vt 0.03125 0.53125
vt 0.03125 0.5
vt 0.46875 0.5
vt 0.46875 0.53125
vt 0.03125 0.53125
vt 0.03125 0.8125
vt 0.46875 0.8125
vt 0.46875 0.84375
vt 0.03125 0.84375
vt 0.46875 0.53125
vt 0.46875 0.8125
vt 0.03125 0.8125
vt 0.03125 0.53125
vt 0.03125 0.5
vt 0.46875 0.5
vt 0.46875 0.53125
vt 0.03125 0.53125
vt 0.03125 0.8125
vt 0.46875 0.8125
vt 0.46875 0.84375
vt 0.03125 0.84375
vt 0.90625 0.34375
vt 1 0.34375
vt 1 0.5
vt 0.90625 0.5
vt 0.90625 0.34375
vt 1 0.34375
vt 1 0.5
vt 0.90625 0.5
vt 0.90625 0.34375
vt 1 0.34375
vt 1 0.5
vt 0.90625 0.5
vt 0.90625 0.34375
vt 1 0.34375
vt 1 0.5
vt 0.90625 0.5
vt 0.46875 0.53125
vt 0.03125 0.53125
vt 0.03125 0.8125
vt 0.46875 0.8125
vt 0.03125 0.5
vt 0.03125 0.53125
vt 0.46875 0.53125
vt 0.46875 0.5
vt 0.03125 0.8125
vt 0.03125 0.84375
vt 0.46875 0.84375
vt 0.46875 0.8125
vt 0.46875 0.53125
vt 0.03125 0.53125
vt 0.03125 0.8125
vt 0.46875 0.8125
vt 0.03125 0.5
vt 0.03125 0.53125
vt 0.46875 0.53125
vt 0.46875 0.5
vt 0.03125 0.8125
vt 0.03125 0.84375
vt 0.46875 0.84375
vt 0.46875 0.8125
vt 0.46875 0.53125
vt 0.03125 0.53125
vt 0.03125 0.8125
vt 0.46875 0.8125
vt 0.03125 0.5
vt 0.03125 0.53125
vt 0.46875 0.53125
vt 0.46875 0.5
vt 0.03125 0.8125
vt 0.03125 0.84375
vt 0.46875 0.84375
vt 0.46875 0.8125
vt 0.46875 0.53125
vt 0.03125 0.53125
vt 0.03125 0.8125
vt 0.46875 0.8125
vt 0.03125 0.5
vt 0.03125 0.53125
vt 0.46875 0.53125
vt 0.46875 0.5
vt 0.03125 0.8125
vt 0.03125 0.84375
vt 0.46875 0.84375
vt 0.46875 0.8125
vt 0.90625 0.34375
vt 0.90625 0.5
vt 1 0.5
vt 1 0.34375
vt 0.90625 0.34375
vt 0.90625 0.5
vt 1 0.5
vt 1 0.34375
vt 0.90625 0.34375
vt 0.90625 0.5
vt 1 0.5
vt 1 0.34375
vt 0.90625 0.34375
vt 0.90625 0.5
vt 1 0.5
vt 1 0.34375
vn -1 0 0
vn 0 0 -1
vn 1 0 0
vn 0 0 1
vn 0 -1 0
vn 0 1 0
vn 0 0 1
vn 0 -0.7071067811865476 0.7071067811865476
vn 0 -0.7071067811865476 0.7071067811865476
vn 1 0 0
vn 0.7071067811865476 -0.7071067811865476 0
vn 0.7071067811865476 -0.7071067811865476 0
vn 0 0 -1
vn 0 -0.7071067811865476 -0.7071067811865476
vn 0 -0.7071067811865476 -0.7071067811865476
vn -1 0 0
vn -0.7071067811865476 -0.7071067811865476 0
vn -0.7071067811865476 -0.7071067811865476 0
vn -0.7071067811865476 0 0.7071067811865476
vn 0.7071067811865476 0 0.7071067811865476
vn 0.7071067811865476 0 -0.7071067811865476
vn -0.7071067811865476 0 -0.7071067811865476
vn 0 0 -1
vn 0 0.7071067811865476 -0.7071067811865476
vn 0 0.7071067811865476 -0.7071067811865476
vn -1 0 0
vn -0.7071067811865476 0.7071067811865476 0
vn -0.7071067811865476 0.7071067811865476 0
vn 0 0 1
vn 0 0.7071067811865476 0.7071067811865476
vn 0 0.7071067811865476 0.7071067811865476
vn 1 0 0
vn 0.7071067811865476 0.7071067811865476 0
vn 0.7071067811865476 0.7071067811865476 0
vn 0.7071067811865476 0 -0.7071067811865476
vn -0.7071067811865476 0 -0.7071067811865476
vn -0.7071067811865476 0 0.7071067811865476
vn 0.7071067811865476 0 0.7071067811865476
usemtl m_0
f 9/25/7 10/26/7 11/27/7 12/28/7
f 12/29/8 11/30/8 13/31/8 14/32/8
f 14/33/9 13/34/9 15/35/9 16/36/9
f 16/37/10 15/38/10 10/39/10 9/40/10
f 12/41/11 14/42/11 16/43/11 9/44/11
f 13/45/12 11/46/12 10/47/12 15/48/12
f 17/49/13 18/50/13 19/51/13 20/52/13
f 17/53/14 20/54/14 21/55/14 22/56/14
f 19/57/15 18/58/15 23/59/15 24/60/15
f 25/61/16 26/62/16 27/63/16 28/64/16
f 25/65/17 28/66/17 29/67/17 30/68/17
f 27/69/18 26/70/18 31/71/18 32/72/18
f 33/73/19 34/74/19 35/75/19 36/76/19
f 33/77/20 36/78/20 37/79/20 38/80/20
f 35/81/21 34/82/21 39/83/21 40/84/21
f 41/85/22 42/86/22 43/87/22 44/88/22
f 41/89/23 44/90/23 45/91/23 46/92/23
f 43/93/24 42/94/24 47/95/24 48/96/24
f 49/97/25 50/98/25 51/99/25 52/100/25
f 53/101/26 54/102/26 55/103/26 56/104/26
f 57/105/27 58/106/27 59/107/27 60/108/27
f 61/109/28 62/110/28 63/111/28 64/112/28
f 65/113/29 66/114/29 67/115/29 68/116/29
f 65/117/30 69/118/30 70/119/30 66/120/30
f 67/121/31 71/122/31 72/123/31 68/124/31
f 73/125/32 74/126/32 75/127/32 76/128/32
f 73/129/33 77/130/33 78/131/33 74/132/33
f 75/133/34 79/134/34 80/135/34 76/136/34
f 81/137/35 82/138/35 83/139/35 84/140/35
f 81/141/36 85/142/36 86/143/36 82/144/36
f 83/145/37 87/146/37 88/147/37 84/148/37
f 89/149/38 90/150/38 91/151/38 92/152/38
f 89/153/39 93/154/39 94/155/39 90/156/39
f 91/157/40 95/158/40 96/159/40 92/160/40
f 97/161/41 98/162/41 99/163/41 100/164/41
f 101/165/42 102/166/42 103/167/42 104/168/42
f 105/169/43 106/170/43 107/171/43 108/172/43
f 109/173/44 110/174/44 111/175/44 112/176/44